PathFileType	4	(X/Y/Z)	TVC_58_BWA_04_walk_RCNL2025.trc
DataRate	CameraRate	NumFrames	NumMarkers	Units	OrigDataRate	OrigDataStartFrame	OrigNumFrames
100	100	12	27	mm	100	55	437
Frame#	Time	R_Shoulder			L_Shoulder			C7			J_Notch			R_Elbow			L_Elbow			R_Wrist			L_Wrist			R_Asis			L_Asis			R_Psis			L_Psis			Sacral			Thoracic			Sternum			R_Thigh_Lateral			R_Knee_Lateral			R_Shank_Lateral			R_Ankle_Lateral			R_Heel			R_Toe			L_Thigh_Lateral			L_Knee_Lateral			L_Shank_Lateral			L_Ankle_Lateral			L_Heel			L_Toe		
		X1	Y1	Z1	X2	Y2	Z2	X3	Y3	Z3	X4	Y4	Z4	X5	Y5	Z5	X6	Y6	Z6	X7	Y7	Z7	X8	Y8	Z8	X9	Y9	Z9	X10	Y10	Z10	X11	Y11	Z11	X12	Y12	Z12	X13	Y13	Z13	X14	Y14	Z14	X15	Y15	Z15	X16	Y16	Z16	X17	Y17	Z17	X18	Y18	Z18	X19	Y19	Z19	X20	Y20	Z20	X21	Y21	Z21	X22	Y22	Z22	X23	Y23	Z23	X24	Y24	Z24	X25	Y25	Z25	X26	Y26	Z26	X27	Y27	Z27
55	0.54000000	-1031.561890	1336.624878	54.819874	-995.978516	1351.860840	-298.697357	-1069.320435	1414.614014	-134.171890	-927.759644	1315.614746	-115.426262	-1088.071655	1019.245178	113.483742	-1028.845581	1032.491211	-378.634857	-1015.624908	782.107910	159.412460	-908.559845	813.690308	-418.346115	-897.749573	913.444275	21.064547	-896.713074	904.467102	-289.427032	-1126.960083	936.875366	-74.748390	-1128.511108	935.937866	-186.963104	-1127.735596	936.406616	-130.855747	-1120.317383	1107.054199	-140.375381	-827.776367	1084.608398	-122.478607	-874.899109	709.814453	107.096512	-787.848755	497.166870	23.203424	-804.031555	299.740906	78.497871	-847.772644	90.502563	4.118938	-903.514221	79.448410	-46.974205	-724.547302	65.770866	-29.702896	-981.258606	656.839905	-356.415253	-962.468567	456.076294	-239.853378	-1008.655884	267.492920	-283.952484	-1084.396240	60.533119	-186.194550	-1132.176392	59.684101	-138.044952	-950.415222	42.017838	-150.548904
56	0.55000000	-1023.838196	1336.010986	55.045521	-988.419189	1351.431885	-298.463135	-1061.539062	1414.027588	-133.867554	-920.087097	1314.966309	-115.289062	-1083.086792	1018.856018	112.919487	-1019.716309	1031.776123	-378.190002	-1011.587341	781.382629	158.920441	-898.209167	813.678223	-417.798889	-889.508850	912.988770	21.216530	-890.059021	903.470215	-289.453064	-1119.080200	936.452637	-73.306702	-1121.323853	935.551697	-185.638718	-1120.202026	936.002167	-129.472710	-1112.773682	1106.441528	-139.778748	-819.987671	1083.788452	-122.953087	-867.339050	708.964355	107.576065	-780.686646	496.314209	23.261662	-783.754028	299.329254	77.644745	-817.455139	87.838913	3.762114	-873.581543	73.996986	-46.407253	-693.334717	69.653954	-32.431580	-976.700073	656.449097	-356.484406	-959.759888	455.480835	-239.959488	-1007.635437	267.383759	-284.074799	-1084.245483	60.672150	-186.176193	-1132.072754	60.098995	-138.034698	-950.355652	41.964275	-150.563690
57	0.56000000	-1015.983215	1335.266235	55.323940	-980.972717	1350.827759	-298.217407	-1053.776123	1413.303589	-133.501572	-912.389038	1314.213989	-115.164871	-1077.858154	1018.343018	112.392487	-1010.716064	1030.849243	-377.613983	-1007.416351	780.507599	158.396683	-888.030579	813.472137	-417.240051	-881.204102	912.348206	21.291483	-883.343872	902.417969	-289.485504	-1111.154175	935.888611	-71.867157	-1114.101685	935.074280	-184.206207	-1112.627930	935.481445	-128.036682	-1105.177856	1105.683960	-139.062851	-812.081116	1082.841553	-123.447304	-859.976135	707.874634	108.116035	-773.638306	495.217255	23.478355	-764.671997	299.502167	76.925560	-788.275085	86.205368	3.111855	-844.585205	69.754715	-46.263699	-663.532715	74.100616	-35.151035	-971.933228	656.043396	-356.583252	-956.920959	454.862732	-240.055786	-1006.303650	267.115387	-284.130005	-1084.085693	60.829609	-186.140167	-1131.954102	60.535851	-138.035309	-950.293701	41.900181	-150.573578
58	0.57000000	-1007.997559	1334.393066	55.657333	-973.632874	1350.050659	-297.957306	-1046.029297	1412.446411	-133.073349	-904.663330	1313.359375	-115.049706	-1072.366089	1017.705017	111.912369	-1001.848816	1029.720093	-376.920044	-1003.103302	779.481812	157.856010	-878.023163	813.078064	-416.663651	-872.844543	911.527710	21.312822	-876.566345	901.334961	-289.540833	-1103.179443	935.183228	-70.441063	-1106.834351	934.502930	-182.680099	-1105.006897	934.843079	-126.560581	-1097.525879	1104.786377	-138.235275	-804.075012	1081.784058	-123.958939	-852.763855	706.597778	108.711990	-766.552673	494.001312	23.835087	-747.108521	300.107208	76.417732	-760.590393	85.468437	2.175935	-816.894775	66.660400	-46.566837	-635.413513	78.875702	-37.794067	-966.943298	655.614380	-356.705566	-953.959900	454.220093	-240.137222	-1004.678894	266.701935	-284.103516	-1083.920654	61.010986	-186.088150	-1131.823730	60.996449	-138.048203	-950.234131	41.829037	-150.580597
59	0.58000000	-999.885010	1333.396606	56.047626	-966.391052	1349.106445	-297.678864	-1038.296143	1411.463257	-132.582458	-896.908447	1312.407227	-114.938301	-1066.592651	1016.942810	111.489204	-993.120239	1028.402100	-376.121582	-998.638184	778.307434	157.313728	-868.186127	812.505280	-416.061996	-864.440430	910.536438	21.309103	-869.720825	900.240845	-289.626099	-1095.153076	934.341003	-69.038368	-1099.510010	933.837219	-181.079269	-1097.331543	934.089111	-125.058819	-1089.813477	1103.756104	-137.305466	-795.987061	1080.635376	-124.482758	-845.648071	705.191956	109.356537	-759.284546	492.792480	24.284153	-731.219360	300.915344	76.144470	-734.750488	85.441818	0.977151	-790.876648	64.588875	-47.321995	-609.246765	83.706032	-40.286728	-961.727173	655.151611	-356.841187	-950.885742	453.551544	-240.197678	-1002.846924	266.189880	-283.999695	-1083.754395	61.222813	-186.024185	-1131.684448	61.485069	-138.072632	-950.181458	41.755196	-150.587250
60	0.59000000	-991.652039	1332.284546	56.496426	-959.236389	1348.005249	-297.377197	-1030.574341	1410.363770	-132.028702	-889.123718	1311.364990	-114.824211	-1060.522461	1016.059387	111.133286	-984.537231	1026.912476	-375.231628	-994.009369	776.990112	156.785454	-858.519653	811.765839	-415.426468	-856.001160	909.388123	21.311085	-862.796997	899.148376	-289.738037	-1087.071777	933.371460	-67.668137	-1092.115967	933.079651	-179.426315	-1089.593872	933.225555	-123.547226	-1082.036377	1102.603027	-136.284439	-787.832947	1079.416748	-125.009941	-838.568298	703.716187	110.039406	-751.705200	491.704346	24.749233	-716.985046	301.680939	76.072250	-711.073608	85.901901	-0.445635	-766.870911	63.359844	-48.510914	-585.285889	88.299126	-42.551750	-956.291382	654.643982	-356.976715	-947.704895	452.856659	-240.229477	-1000.933533	265.651733	-283.848206	-1083.589844	61.471966	-185.953522	-1131.537476	62.008804	-138.104980	-950.138733	41.683010	-150.595856
61	0.60000000	-983.308228	1331.067505	57.004936	-952.155945	1346.760620	-297.046661	-1022.861023	1409.160645	-131.412094	-881.308899	1310.243164	-114.700027	-1054.142578	1015.059875	110.854866	-976.107971	1025.271118	-374.262512	-989.203430	775.538788	156.286934	-849.024811	810.874298	-414.748016	-847.534424	908.100403	21.349277	-855.780273	898.062439	-289.864014	-1078.932251	932.288574	-66.338837	-1084.639160	932.235352	-177.746918	-1081.785706	932.261963	-122.042877	-1074.190796	1101.339844	-135.184509	-779.625122	1078.150879	-125.527641	-831.459595	702.224243	110.747742	-743.713989	490.824677	25.134001	-704.253052	302.197968	76.125641	-689.822021	86.607903	-2.039255	-745.168396	62.754467	-50.087494	-563.751160	92.365463	-44.517326	-950.650635	654.081421	-357.096680	-944.417480	452.135590	-240.222763	-999.061584	265.169556	-283.693665	-1083.428345	61.764927	-185.880966	-1131.382324	62.577259	-138.138504	-950.107239	41.616192	-150.608109
62	0.61000000	-974.865173	1329.758545	57.573921	-945.134888	1345.389893	-296.681244	-1015.153564	1407.868652	-130.733063	-873.464478	1309.054932	-114.557533	-1047.442505	1013.951599	110.663765	-967.841431	1023.501343	-373.225525	-984.205414	773.965973	155.833839	-839.704102	809.847290	-414.017990	-839.044800	906.695618	21.452061	-848.652222	896.980347	-289.984131	-1070.731567	931.110352	-65.058617	-1077.066284	931.312195	-176.068909	-1073.898926	931.211273	-120.563763	-1066.272949	1099.981689	-134.018921	-771.372803	1076.859863	-126.019104	-824.255554	700.759033	111.466629	-735.248535	490.203674	25.338966	-692.806824	302.329346	76.209824	-671.180176	87.325081	-3.740640	-725.989258	62.537739	-51.977486	-544.810913	95.641396	-46.130257	-944.825073	653.456055	-357.183990	-941.014893	451.388214	-240.164932	-997.310364	264.816254	-283.581970	-1083.268677	62.107311	-185.809479	-1131.216431	63.201759	-138.163849	-950.086365	41.557613	-150.625046
63	0.62000000	-966.336548	1328.373413	58.203640	-938.156799	1343.913696	-296.274750	-1007.449097	1406.504883	-129.992401	-865.591125	1307.816528	-114.387939	-1040.415283	1012.744446	110.569031	-959.746582	1021.628174	-372.130463	-978.998718	772.287598	155.441521	-830.561676	808.703186	-413.228821	-830.533264	905.200378	21.644125	-841.391785	895.893188	-290.074280	-1062.466309	929.857300	-63.835342	-1069.384277	930.320496	-174.421158	-1065.925293	930.088898	-119.128250	-1058.279541	1098.545532	-132.801544	-763.081299	1075.564575	-126.464340	-816.892212	699.347046	112.179649	-726.293701	489.845367	25.282816	-682.430603	302.006104	76.233055	-655.237183	87.846977	-5.483810	-709.466064	62.483017	-54.084000	-528.563904	97.909904	-47.370049	-938.837219	652.762817	-357.220490	-937.478882	450.614288	-240.040985	-995.694214	264.641052	-283.552582	-1083.107178	62.503746	-185.738998	-1131.035278	63.894352	-138.169846	-950.073792	41.509308	-150.647202
64	0.63000000	-957.737549	1326.929810	58.893852	-931.204041	1342.355225	-295.821198	-999.744629	1405.088623	-129.191315	-857.689880	1306.546143	-114.182091	-1033.057251	1011.450500	110.578491	-951.831726	1019.678894	-370.985474	-973.565369	770.522858	155.124786	-821.603638	807.461365	-412.374603	-821.996887	903.645020	21.945089	-833.977478	894.788513	-290.109039	-1054.133301	928.551453	-62.676472	-1061.580933	929.272156	-172.832230	-1057.857117	928.911804	-117.754351	-1050.208374	1097.050903	-131.546356	-754.752380	1074.284424	-126.841187	-809.312073	697.996460	112.869690	-716.885498	489.705200	24.921724	-672.948669	301.210205	76.123802	-641.977783	88.013397	-7.208158	-695.631470	62.394691	-56.298374	-515.024475	99.016998	-48.258602	-932.708252	651.998962	-357.187317	-933.782898	449.813660	-239.834656	-994.141724	264.653137	-283.624420	-1082.938110	62.958153	-185.666122	-1130.832764	64.667107	-138.144989	-950.066162	41.472519	-150.674942
65	0.64000000	-949.083923	1325.447632	59.643814	-924.258545	1340.740356	-295.315216	-992.037231	1403.640869	-128.331558	-849.761780	1305.264404	-113.930840	-1025.368408	1010.084412	110.698425	-944.103516	1017.682129	-369.796814	-967.886108	768.693970	154.897545	-812.837708	806.142151	-411.451721	-813.428711	902.063354	22.368170	-826.389282	893.653503	-290.063660	-1045.729248	927.214966	-61.588764	-1053.644409	928.180420	-171.328995	-1049.686829	927.697693	-116.458879	-1042.057495	1095.518555	-130.267120	-746.384399	1073.036499	-127.126564	-801.469360	696.698364	113.520218	-707.110291	489.696136	24.260818	-664.231812	299.956573	75.836227	-631.281128	87.722359	-8.865448	-684.412903	62.126186	-58.513523	-504.112427	98.883034	-48.861725	-926.454041	651.163818	-357.065796	-929.894409	448.986694	-239.530136	-992.502747	264.815521	-283.775574	-1082.753418	63.474384	-185.584732	-1130.601318	65.531952	-138.078629	-950.059143	41.447849	-150.708527
66	0.65000000	-940.391602	1323.948242	60.452293	-917.302002	1339.096924	-294.752167	-984.324036	1402.183716	-127.415291	-841.808167	1303.993408	-113.625366	-1017.353394	1008.662903	110.933281	-936.565796	1015.667358	-368.568542	-961.940948	766.825836	154.772552	-804.273529	804.766174	-410.459167	-804.818604	900.491211	22.918907	-818.610107	892.477295	-289.915497	-1037.250488	925.869507	-60.577820	-1045.564209	927.059143	-169.935165	-1041.407349	926.464325	-115.256493	-1033.826416	1093.971191	-128.977036	-737.972900	1071.836304	-127.298058	-793.333740	695.432983	114.117088	-697.097961	489.703491	23.354986	-656.181702	298.280243	75.345177	-622.927856	86.935097	-10.423978	-675.634033	61.591560	-60.636360	-495.648071	97.508995	-49.281734	-920.082153	650.257751	-356.838379	-925.777771	448.134644	-239.113770	-990.602966	265.054230	-283.933411	-1082.543579	64.057236	-185.487457	-1130.333008	66.501389	-137.962616	-950.047852	41.435490	-150.748276
